<svg xmlns="http://www.w3.org/2000/svg" viewBox="0 0 700 370"><style>text { font-family: -apple-system, BlinkMacSystemFont, 'Segoe UI', Roboto, sans-serif; }</style><rect x="0" y="0" width="700" height="370" fill="#0d1117" rx="6"/><text x="350" y="24" text-anchor="middle" font-size="15" font-weight="600" fill="#e6edf3">Speedup vs the strongest Rust baseline (geomean)</text><text x="350" y="46" text-anchor="middle" font-size="12" fill="#9ba1a8">Linux CI · 4,102 of 6,750 matched comparisons</text><line x1="190.0" y1="68.0" x2="190.0" y2="322.0" stroke="#30363d" stroke-width="1"/><text x="190.0" y="338" text-anchor="middle" font-size="10" fill="#7d8590">0x</text><line x1="265.0" y1="68.0" x2="265.0" y2="322.0" stroke="#7d8590" stroke-width="1" stroke-dasharray="4,4"/><text x="265.0" y="338" text-anchor="middle" font-size="10" fill="#7d8590">1x</text><line x1="340.0" y1="68.0" x2="340.0" y2="322.0" stroke="#30363d" stroke-width="1"/><text x="340.0" y="338" text-anchor="middle" font-size="10" fill="#7d8590">2x</text><line x1="415.0" y1="68.0" x2="415.0" y2="322.0" stroke="#30363d" stroke-width="1"/><text x="415.0" y="338" text-anchor="middle" font-size="10" fill="#7d8590">3x</text><line x1="490.0" y1="68.0" x2="490.0" y2="322.0" stroke="#30363d" stroke-width="1"/><text x="490.0" y="338" text-anchor="middle" font-size="10" fill="#7d8590">4x</text><line x1="565.0" y1="68.0" x2="565.0" y2="322.0" stroke="#30363d" stroke-width="1"/><text x="565.0" y="338" text-anchor="middle" font-size="10" fill="#7d8590">5x</text><line x1="640.0" y1="68.0" x2="640.0" y2="322.0" stroke="#30363d" stroke-width="1"/><text x="640.0" y="338" text-anchor="middle" font-size="10" fill="#7d8590">6x</text><text x="178.0" y="97.0" text-anchor="end" font-size="12" fill="#e6edf3">Checksums</text><rect x="190.0" y="82.0" width="390.0" height="22.0" fill="#f4a460" rx="2"/><text x="586.0" y="97.0" font-size="11" font-weight="600" fill="#e6edf3">5.20x</text><text x="178.0" y="131.0" text-anchor="end" font-size="12" fill="#e6edf3">AEAD</text><rect x="190.0" y="116.0" width="117.0" height="22.0" fill="#f4a460" rx="2"/><text x="313.0" y="131.0" font-size="11" font-weight="600" fill="#e6edf3">1.56x</text><text x="178.0" y="165.0" text-anchor="end" font-size="12" fill="#e6edf3">RSA</text><rect x="190.0" y="150.0" width="115.5" height="22.0" fill="#f4a460" rx="2"/><text x="311.5" y="165.0" font-size="11" font-weight="600" fill="#e6edf3">1.54x</text><text x="178.0" y="199.0" text-anchor="end" font-size="12" fill="#e6edf3">Hashes/MACs/XOFs</text><rect x="190.0" y="184.0" width="101.2" height="22.0" fill="#f4a460" rx="2"/><text x="297.2" y="199.0" font-size="11" font-weight="600" fill="#e6edf3">1.35x</text><text x="178.0" y="233.0" text-anchor="end" font-size="12" fill="#e6edf3">Auth/KDF</text><rect x="190.0" y="218.0" width="92.2" height="22.0" fill="#f4a460" rx="2"/><text x="288.2" y="233.0" font-size="11" font-weight="600" fill="#e6edf3">1.23x</text><text x="178.0" y="267.0" text-anchor="end" font-size="12" fill="#e6edf3">Public-key</text><rect x="190.0" y="252.0" width="84.0" height="22.0" fill="#f4a460" rx="2"/><text x="280.0" y="267.0" font-size="11" font-weight="600" fill="#e6edf3">1.12x</text><text x="178.0" y="301.0" text-anchor="end" font-size="12" fill="#e6edf3">Password hashing</text><rect x="190.0" y="286.0" width="83.3" height="22.0" fill="#f4a460" rx="2"/><text x="279.2" y="301.0" font-size="11" font-weight="600" fill="#e6edf3">1.11x</text><text x="350" y="362" text-anchor="middle" font-size="9" fill="#7d8590">Source: benchmark_results/OVERVIEW.md</text></svg>