<svg xmlns="http://www.w3.org/2000/svg" viewBox="0 0 700 320"><style>text { font-family: -apple-system, BlinkMacSystemFont, 'Segoe UI', Roboto, sans-serif; }</style><rect x="0" y="0" width="700" height="320" fill="#0d1117" rx="6"/><text x="350" y="24" text-anchor="middle" font-size="15" font-weight="600" fill="#e6edf3">Speedup vs the strongest Rust baseline (geomean)</text><text x="350" y="46" text-anchor="middle" font-size="12" fill="#9ba1a8">Linux CI · 3,545 of 5,832 matched comparisons</text><line x1="190.0" y1="68.0" x2="190.0" y2="272.0" stroke="#30363d" stroke-width="1"/><text x="190.0" y="288" text-anchor="middle" font-size="10" fill="#7d8590">0x</text><line x1="280.0" y1="68.0" x2="280.0" y2="272.0" stroke="#7d8590" stroke-width="1" stroke-dasharray="4,4"/><text x="280.0" y="288" text-anchor="middle" font-size="10" fill="#7d8590">1x</text><line x1="370.0" y1="68.0" x2="370.0" y2="272.0" stroke="#30363d" stroke-width="1"/><text x="370.0" y="288" text-anchor="middle" font-size="10" fill="#7d8590">2x</text><line x1="460.0" y1="68.0" x2="460.0" y2="272.0" stroke="#30363d" stroke-width="1"/><text x="460.0" y="288" text-anchor="middle" font-size="10" fill="#7d8590">3x</text><line x1="550.0" y1="68.0" x2="550.0" y2="272.0" stroke="#30363d" stroke-width="1"/><text x="550.0" y="288" text-anchor="middle" font-size="10" fill="#7d8590">4x</text><line x1="640.0" y1="68.0" x2="640.0" y2="272.0" stroke="#30363d" stroke-width="1"/><text x="640.0" y="288" text-anchor="middle" font-size="10" fill="#7d8590">5x</text><text x="178.0" y="89.0" text-anchor="end" font-size="12" fill="#e6edf3">Checksums</text><rect x="190.0" y="74.0" width="452.7" height="22.0" fill="#f4a460" rx="2"/><text x="648.7" y="89.0" font-size="11" font-weight="600" fill="#e6edf3">5.03x</text><text x="178.0" y="123.0" text-anchor="end" font-size="12" fill="#e6edf3">BLAKE3 ≥64 KiB</text><rect x="190.0" y="108.0" width="207.9" height="22.0" fill="#f4a460" rx="2"/><text x="403.9" y="123.0" font-size="11" font-weight="600" fill="#e6edf3">2.31x</text><text x="178.0" y="157.0" text-anchor="end" font-size="12" fill="#e6edf3">SHA-3</text><rect x="190.0" y="142.0" width="193.5" height="22.0" fill="#f4a460" rx="2"/><text x="389.5" y="157.0" font-size="11" font-weight="600" fill="#e6edf3">2.15x</text><text x="178.0" y="191.0" text-anchor="end" font-size="12" fill="#e6edf3">SHAKE</text><rect x="190.0" y="176.0" width="167.4" height="22.0" fill="#f4a460" rx="2"/><text x="363.4" y="191.0" font-size="11" font-weight="600" fill="#e6edf3">1.86x</text><text x="178.0" y="225.0" text-anchor="end" font-size="12" fill="#e6edf3">AEAD</text><rect x="190.0" y="210.0" width="141.3" height="22.0" fill="#f4a460" rx="2"/><text x="337.3" y="225.0" font-size="11" font-weight="600" fill="#e6edf3">1.57x</text><text x="178.0" y="259.0" text-anchor="end" font-size="12" fill="#e6edf3">RSA import+verify</text><rect x="190.0" y="244.0" width="118.8" height="22.0" fill="#f4a460" rx="2"/><text x="314.8" y="259.0" font-size="11" font-weight="600" fill="#e6edf3">1.32x</text><text x="350" y="312" text-anchor="middle" font-size="9" fill="#7d8590">Source: benchmark_results/OVERVIEW.md</text></svg>