<svg xmlns="http://www.w3.org/2000/svg" viewBox="0 0 900 670"><style>
text.sans { font-family: ui-sans-serif, -apple-system, BlinkMacSystemFont, 'Segoe UI', sans-serif; }
text.mono { font-family: ui-monospace, SFMono-Regular, Menlo, Consolas, 'Liberation Mono', monospace; }
text.hero { letter-spacing: -2px; paint-order: stroke fill; stroke: #0090FF; stroke-width: 0.7px; }
</style><rect x="0" y="0" width="900" height="670" fill="#000000" rx="8"/><text class="sans" x="48.0" y="42.0" text-anchor="start" font-size="28" font-weight="850" fill="#e6edf3">rscrypto</text><text class="sans" x="48.0" y="68.0" text-anchor="start" font-size="13" font-weight="500" fill="#7d8590">Geomean speedups vs fastest matched competitors. Higher is better.</text><line x1="48" y1="88" x2="852" y2="88" stroke="#30363d" stroke-width="1"/><text class="sans" x="48.0" y="120.0" text-anchor="start" font-size="15" font-weight="750" fill="#e6edf3">Linux</text><text class="mono hero" x="48.0" y="188.0" text-anchor="start" font-size="76" font-weight="900" fill="#0090FF">1.59x</text><text class="mono" x="52.0" y="216.0" text-anchor="start" font-size="13" font-weight="550" fill="#7d8590">4,095 wins | 6,080 wins/ties | 6,750 cases</text><text class="sans" x="520.0" y="120.0" text-anchor="start" font-size="15" font-weight="750" fill="#e6edf3">Apple Silicon</text><text class="mono hero" x="520.0" y="188.0" text-anchor="start" font-size="76" font-weight="900" fill="#0090FF">1.37x</text><text class="mono" x="524.0" y="216.0" text-anchor="start" font-size="13" font-weight="550" fill="#7d8590">386 wins | 748 wins/ties | 786 cases</text><line x1="450" y1="116" x2="450" y2="222" stroke="#30363d" stroke-width="1"/><line x1="48" y1="246" x2="852" y2="246" stroke="#30363d" stroke-width="1"/><text class="sans" x="48.0" y="276.0" text-anchor="start" font-size="19" font-weight="800" fill="#e6edf3">Checksums</text><text class="mono" x="790.0" y="276.0" text-anchor="start" font-size="18" font-weight="900" fill="#e6edf3">5.20x</text><rect x="48.0" y="296" width="804.0" height="8" fill="#21262d" rx="4"/><rect x="48.0" y="296" width="696.8" height="8" fill="#0090FF" rx="4"/><text class="mono" x="48.0" y="324.0" text-anchor="start" font-size="11" font-weight="550" fill="#7d8590">- Competitor Crates/Libs: crc-fast, crc, crc32fast, crc32c, crc64fast</text><line x1="48" y1="344" x2="852" y2="344" stroke="#30363d" stroke-width="1"/><text class="sans" x="48.0" y="370.0" text-anchor="start" font-size="19" font-weight="800" fill="#e6edf3">Primitive Geomeans</text><text class="sans" x="48.0" y="408.0" text-anchor="start" font-size="13" font-weight="700" fill="#c9d1d9">AEAD</text><rect x="260.0" y="398.0" width="430.0" height="11.0" fill="#21262d" rx="3"/><rect x="260.0" y="398.0" width="401.3" height="11.0" fill="#0090FF" rx="3"/><text class="mono" x="724.0" y="408.0" text-anchor="start" font-size="15" font-weight="850" fill="#e6edf3">1.56x</text><text class="sans" x="48.0" y="429.0" text-anchor="start" font-size="13" font-weight="700" fill="#c9d1d9">RSA</text><rect x="260.0" y="419.0" width="430.0" height="11.0" fill="#21262d" rx="3"/><rect x="260.0" y="419.0" width="379.8" height="11.0" fill="#0090FF" rx="3"/><text class="mono" x="724.0" y="429.0" text-anchor="start" font-size="15" font-weight="850" fill="#e6edf3">1.53x</text><text class="sans" x="48.0" y="450.0" text-anchor="start" font-size="13" font-weight="700" fill="#c9d1d9">ECDSA</text><rect x="260.0" y="440.0" width="430.0" height="11.0" fill="#21262d" rx="3"/><rect x="260.0" y="440.0" width="293.8" height="11.0" fill="#0090FF" rx="3"/><text class="mono" x="724.0" y="450.0" text-anchor="start" font-size="15" font-weight="850" fill="#e6edf3">1.41x</text><text class="sans" x="48.0" y="471.0" text-anchor="start" font-size="13" font-weight="700" fill="#c9d1d9">Hashes/MAC/XOF</text><rect x="260.0" y="461.0" width="430.0" height="11.0" fill="#21262d" rx="3"/><rect x="260.0" y="461.0" width="250.8" height="11.0" fill="#0090FF" rx="3"/><text class="mono" x="724.0" y="471.0" text-anchor="start" font-size="15" font-weight="850" fill="#e6edf3">1.35x</text><text class="sans" x="48.0" y="492.0" text-anchor="start" font-size="13" font-weight="700" fill="#c9d1d9">Auth/KDF</text><rect x="260.0" y="482.0" width="430.0" height="11.0" fill="#21262d" rx="3"/><rect x="260.0" y="482.0" width="179.2" height="11.0" fill="#0090FF" rx="3"/><text class="mono" x="724.0" y="492.0" text-anchor="start" font-size="15" font-weight="850" fill="#e6edf3">1.25x</text><text class="sans" x="48.0" y="513.0" text-anchor="start" font-size="13" font-weight="700" fill="#c9d1d9">Password Hashing</text><rect x="260.0" y="503.0" width="430.0" height="11.0" fill="#21262d" rx="3"/><rect x="260.0" y="503.0" width="57.3" height="11.0" fill="#0090FF" rx="3"/><text class="mono" x="724.0" y="513.0" text-anchor="start" font-size="15" font-weight="850" fill="#e6edf3">1.08x</text><text class="sans" x="48.0" y="534.0" text-anchor="start" font-size="13" font-weight="700" fill="#c9d1d9">ML-KEM</text><rect x="260.0" y="524.0" width="430.0" height="11.0" fill="#21262d" rx="3"/><rect x="260.0" y="524.0" width="43.0" height="11.0" fill="#0090FF" rx="3"/><text class="mono" x="724.0" y="534.0" text-anchor="start" font-size="15" font-weight="850" fill="#e6edf3">1.06x</text><line x1="48" y1="558" x2="852" y2="558" stroke="#30363d" stroke-width="1"/><text class="sans" x="48.0" y="578.0" text-anchor="start" font-size="10" font-weight="500" fill="#7d8590">- Linux Runners: AMD Zen 4/5; Intel Sapphire Rapids/Ice Lake; AWS Graviton 3/4; IBM POWER 10 and IBM Z16 (s390x); Rise RISC-V</text><text class="sans" x="48.0" y="600.0" text-anchor="start" font-size="10" font-weight="500" fill="#7d8590">- macOS: MBP M1 10-Core, 16GB RAM - Local Dev Box</text><text class="sans" x="48.0" y="622.0" text-anchor="start" font-size="10" font-weight="500" fill="#7d8590">- Fastest External: aws-lc-rs, ring, RustCrypto, BLAKE3, libcrux, crc-fast, etc.</text></svg>